<?xml version="1.0" encoding="utf-8"?>
<!-- Generator: Adobe Illustrator 22.1.0, SVG Export Plug-In . SVG Version: 6.00 Build 0)  -->
<svg version="1.1" id="Layer_1" xmlns="http://www.w3.org/2000/svg" xmlns:xlink="http://www.w3.org/1999/xlink" x="0px" y="0px"
	 viewBox="0 0 51.7 49.3" style="enable-background:new 0 0 51.7 49.3;" xml:space="preserve">
<style type="text/css">
	.st0{fill:#189CDC;}
</style>
<g>
	<path class="st0" d="M37.7,21.5l-2.3-6.2c-0.4-1-1.4-1.7-2.5-1.8H16.5c-1.1,0-2.1,0.7-2.5,1.8l-2.3,6.1l-0.9,0.9
		C9.9,23,9.4,24,9.4,25.1v9c0,1.5,1.2,2.7,2.7,2.7h1.7c1.5,0,2.7-1.2,2.7-2.7v-1.3h16v1.3c0,1.5,1.2,2.7,2.7,2.7h1.7
		c1.5,0,2.7-1.2,2.7-2.7v-9.3c0-1-0.4-2-1.2-2.7L37.7,21.5z M15.2,15.7c0.2-0.5,0.7-0.9,1.3-0.9H33c0.6,0,1.1,0.4,1.3,0.9l2,5.4
		h-1.5c-0.4-2.4-2.6-4.1-5-3.7c-1.9,0.3-3.4,1.8-3.7,3.7H13.2L15.2,15.7z M33.4,21.1h-6.1c0.4-1.7,2-2.8,3.7-2.4
		C32.2,19,33.2,19.9,33.4,21.1z M15.2,34.1c0,0.8-0.6,1.4-1.4,1.4h-1.7c-0.8,0-1.4-0.6-1.4-1.4v-1.7c0.4,0.3,0.9,0.4,1.4,0.4h3.1
		C15.2,32.8,15.2,34.1,15.2,34.1z M36.9,35.5h-1.7c-0.8,0-1.4-0.6-1.4-1.4v-1.3h3.1c0.5,0,1-0.1,1.4-0.4v1.7
		C38.3,34.9,37.6,35.5,36.9,35.5z M38.3,30.2c0,0.8-0.6,1.4-1.4,1.4l0,0H12.1c-0.8,0-1.4-0.6-1.4-1.4l0,0v-5.1
		c0-0.7,0.3-1.4,0.9-1.8l0,0l0.9-0.8h24.4l0.6,0.7l0,0c0.5,0.5,0.8,1.1,0.8,1.8V30.2L38.3,30.2z"/>
	<path class="st0" d="M18.6,25.6c0-0.4-0.3-0.6-0.6-0.6h-4.8c-0.4,0-0.6,0.3-0.6,0.6V29c0,0.4,0.3,0.6,0.6,0.6H18
		c0.4,0,0.6-0.3,0.6-0.6V25.6z M17.3,28.3h-3.5v-2.1h3.5V28.3z"/>
	<path class="st0" d="M36.5,25.6c0-0.4-0.3-0.6-0.6-0.6h-4.8c-0.4,0-0.6,0.3-0.6,0.6V29c0,0.4,0.3,0.6,0.6,0.6h4.8
		c0.4,0,0.6-0.3,0.6-0.6V25.6z M35.2,28.3h-3.5v-2.1h3.5V28.3z"/>
	<path class="st0" d="M27.6,27.7h-6.2c-0.4,0-0.6,0.3-0.6,0.6c0,0.4,0.3,0.6,0.6,0.6h6.2c0.4,0,0.6-0.3,0.6-0.6
		C28.3,28,28,27.7,27.6,27.7L27.6,27.7z"/>
	<path class="st0" d="M27.6,25.7h-6.2c-0.4,0-0.6,0.3-0.6,0.6S21,27,21.4,27h6.2c0.4,0,0.6-0.3,0.6-0.6S28,25.7,27.6,25.7L27.6,25.7
		z"/>
</g>
</svg>
