<?xml version="1.0" encoding="utf-8"?>
<!-- Generator: Adobe Illustrator 22.1.0, SVG Export Plug-In . SVG Version: 6.00 Build 0)  -->
<svg version="1.1" id="Layer_1" xmlns="http://www.w3.org/2000/svg" xmlns:xlink="http://www.w3.org/1999/xlink" x="0px" y="0px"
	 viewBox="0 0 112.5 107.5" style="enable-background:new 0 0 112.5 107.5;" xml:space="preserve">
<style type="text/css">
	.st0{fill:#FFFFFF;}
	.st1{fill:none;}
	.st2{fill:#FFFFFF;stroke:#189CDC;stroke-width:3;stroke-miterlimit:10;}
	.st3{fill:#189CDC;}
	.st4{font-family:'MyriadPro-Semibold';}
	.st5{font-size:18px;}
</style>
<g>
	<path class="st0" d="M33.7,28.1h5.6l8,29.1c0.2,0.9,1,1.4,1.9,1.4h24.7c0.8,0,1.5-0.5,1.8-1.2l9-20.7c0.3-0.6,0.2-1.3-0.2-1.9
		c-0.4-0.6-1-0.9-1.6-0.9H55.7c-1.1,0-2,0.9-2,2s0.9,2,2,2H80l-7.3,16.8H50.8l-8-29.1c-0.2-0.9-1-1.4-1.9-1.4h-7.1c-1.1,0-2,0.9-2,2
		C31.8,27.3,32.6,28.1,33.7,28.1L33.7,28.1z"/>
	<rect x="31.8" y="24.3" class="st1" width="53.2" height="48.3"/>
	<path class="st0" d="M47.4,72.6c2.5,0,4.5-2,4.5-4.5s-2-4.5-4.5-4.5s-4.5,2-4.5,4.5C43,70.6,45,72.6,47.4,72.6L47.4,72.6z"/>
	<path class="st0" d="M75.3,72.6h0.3c1.2-0.1,2.3-0.6,3.1-1.5c0.8-0.9,1.1-2,1.1-3.2c-0.2-2.4-2.3-4.3-4.8-4.1s-4.3,2.3-4.1,4.8
		C71.1,70.7,73,72.6,75.3,72.6L75.3,72.6z"/>
</g>
<circle class="st2" cx="81" cy="24.3" r="18.5"/>
<text transform="matrix(1 0 0 1 75.1667 31)" class="st3 st4 st5">2</text>
</svg>
