<?xml version="1.0" encoding="utf-8"?>
<!-- Generator: Adobe Illustrator 22.1.0, SVG Export Plug-In . SVG Version: 6.00 Build 0)  -->
<svg version="1.1" id="Layer_1" xmlns="http://www.w3.org/2000/svg" xmlns:xlink="http://www.w3.org/1999/xlink" x="0px" y="0px"
	 viewBox="0 0 50.1 51.4" style="enable-background:new 0 0 50.1 51.4;" xml:space="preserve">
<style type="text/css">
	.st0{fill:#189CDC;}
</style>
<g>
	<path class="st0" d="M19.9,28.3c0,0-1.1,0-1.2,0s-0.3,0.1-0.4,0.2L15,31.9v-3c0-0.3-0.3-0.6-0.6-0.6h-1.7c-0.1,0-0.2-0.1-0.2-0.2
		V17.7c0-0.1,0.1-0.2,0.2-0.2h17.2c0.1,0,0.2,0.1,0.2,0.2v4c0,0.3,0.3,0.6,0.6,0.6c0.3,0,0.6-0.3,0.6-0.6v-4c0-0.8-0.6-1.4-1.4-1.4
		H12.6c-0.8,0-1.4,0.6-1.4,1.4V28c0,0.8,0.6,1.4,1.4,1.4h1.1v3.9c0,0.2,0.1,0.5,0.4,0.6c0.1,0,0.2,0,0.2,0c0.2,0,0.3-0.1,0.4-0.2
		l4.3-4.3h0.9c0.3,0,0.6-0.3,0.6-0.6C20.5,28.5,20.3,28.3,19.9,28.3z"/>
	<path class="st0" d="M35.4,23.7h-12c-0.8,0-1.4,0.6-1.4,1.4v7.1c0,0.8,0.6,1.4,1.4,1.4H31l3.1,3.1c0.1,0.1,0.3,0.2,0.4,0.2
		c0.1,0,0.2,0,0.2,0c0.2-0.1,0.4-0.3,0.4-0.6v-2.6h0.4c0.8,0,1.4-0.6,1.4-1.4v-7.1C36.9,24.3,36.2,23.7,35.4,23.7z M35.7,32.2
		c0,0.1-0.1,0.2-0.2,0.2h-1c-0.3,0-0.6,0.2-0.6,0.6v1.8l-2.2-2.2l0,0l0,0c-0.1-0.1-0.2-0.2-0.4-0.2h-7.8c-0.1,0-0.2-0.1-0.2-0.2
		v-7.1c0-0.1,0.1-0.2,0.2-0.2h12.1c0.1,0,0.2,0.1,0.2,0.2L35.7,32.2L35.7,32.2z"/>
	<path class="st0" d="M29.4,28c-0.3,0-0.6,0.3-0.6,0.6s0.3,0.6,0.6,0.6c0.3,0,0.6-0.3,0.6-0.6S29.7,28,29.4,28z"/>
	<path class="st0" d="M15.7,20.2c-0.3,0-0.6,0.3-0.6,0.6c0,0.3,0.3,0.6,0.6,0.6h11c0.3,0,0.6-0.3,0.6-0.6c0-0.3-0.3-0.6-0.6-0.6
		H15.7z"/>
	<path class="st0" d="M19.9,24.3h-4.2c-0.3,0-0.6,0.3-0.6,0.6s0.3,0.6,0.6,0.6h4.2c0.3,0,0.6-0.3,0.6-0.6
		C20.5,24.5,20.3,24.3,19.9,24.3z"/>
	<path class="st0" d="M26.6,28c-0.3,0-0.6,0.3-0.6,0.6s0.3,0.6,0.6,0.6c0.3,0,0.6-0.3,0.6-0.6S26.9,28,26.6,28z"/>
	<path class="st0" d="M32.2,28c-0.3,0-0.6,0.3-0.6,0.6s0.3,0.6,0.6,0.6c0.3,0,0.6-0.3,0.6-0.6S32.6,28,32.2,28z"/>
</g>
</svg>
