<?xml version="1.0" encoding="utf-8"?>
<!-- Generator: Adobe Illustrator 22.1.0, SVG Export Plug-In . SVG Version: 6.00 Build 0)  -->
<svg version="1.1" id="Layer_1" xmlns="http://www.w3.org/2000/svg" xmlns:xlink="http://www.w3.org/1999/xlink" x="0px" y="0px"
	 viewBox="0 0 72.7 67.6" style="enable-background:new 0 0 72.7 67.6;" xml:space="preserve">
<style type="text/css">
	.st0{fill:#189CDC;}
</style>
<path class="st0" d="M45.9,16.3c-2.2,0-4.1,0.7-5.9,2c-1.6,1.2-2.7,2.7-3.3,3.8C36.2,22.7,35.6,23,35,23s-1.2-0.3-1.5-0.9
	c-0.6-1.1-1.7-2.6-3.3-3.8c-1.8-1.3-3.8-2-5.9-2c-3,0-5.7,1.2-7.6,3.3c-2,2.2-3.1,5.2-3.1,8.5c0,3.5,1.3,6.6,4.2,10
	c2.8,3.4,6.9,6.9,11.7,11c1.7,1.4,3.6,3.1,5.6,4.8c2-1.7,3.9-3.4,5.6-4.8c4.8-4.1,8.9-7.6,11.7-11c2.9-3.5,4.2-6.6,4.2-10
	c0-3.3-1.1-6.3-3.1-8.5C51.5,17.5,48.8,16.3,45.9,16.3z"/>
<path class="st0" d="M45.7,13.5c-2.8,0-5.3,0.8-7.6,2.6C36.9,17,35.9,18,35,19.3c-0.9-1.2-2-2.3-3.1-3.2c-2.2-1.7-4.8-2.6-7.6-2.6
	c-3.7,0-7.2,1.5-9.7,4.2c-2.5,2.7-3.9,6.4-3.9,10.4c0,4.2,1.5,7.9,4.8,11.9c3,3.5,7.2,7.1,12.1,11.3c1.6,1.5,3.5,3.1,5.5,4.8
	c0.5,0.4,1.2,0.7,1.9,0.7s1.4-0.3,1.9-0.7c1.9-1.8,3.8-3.4,5.5-4.8c4.9-4.1,9.2-7.7,12.1-11.3c3.3-4,4.8-7.8,4.8-11.9
	c0-4-1.4-7.7-3.9-10.4C52.9,15,49.5,13.5,45.7,13.5z M52.4,38.1c-2.8,3.4-6.9,6.9-11.7,11c-1.7,1.4-3.6,3.1-5.6,4.8
	c-2-1.7-3.9-3.4-5.6-4.8c-4.8-4.1-8.9-7.6-11.7-11c-2.9-3.4-4.2-6.5-4.2-10c0-3.3,1.1-6.3,3.1-8.5c1.9-2.1,4.6-3.3,7.6-3.3
	c2.1,0,4.1,0.7,5.9,2c1.6,1.2,2.7,2.7,3.3,3.8c0.3,0.6,0.9,0.9,1.5,0.9s1.2-0.3,1.7-0.9c0.6-1.1,1.7-2.6,3.3-3.8
	c1.8-1.3,3.7-2,5.9-2c2.9,0,5.6,1.2,7.6,3.3c2,2.2,3.1,5.2,3.1,8.5C56.6,31.5,55.3,34.6,52.4,38.1z"/>
</svg>
