<?xml version="1.0" encoding="utf-8"?>
<!-- Generator: Adobe Illustrator 22.1.0, SVG Export Plug-In . SVG Version: 6.00 Build 0)  -->
<svg version="1.1" id="Layer_1" xmlns="http://www.w3.org/2000/svg" xmlns:xlink="http://www.w3.org/1999/xlink" x="0px" y="0px"
	 viewBox="0 0 72.7 67.6" style="enable-background:new 0 0 72.7 67.6;" xml:space="preserve">
<style type="text/css">
	.st0{fill:#189CDC;}
</style>
<path class="st0" d="M36.2,15c-8.2,0-14.8,6.6-14.8,14.8c0,2.8,0.8,5.4,2.2,7.8l11.7,18.9c0.2,0.4,0.6,0.6,1,0.6l0,0
	c0.4,0,0.8-0.2,1-0.6l11.4-19.1c1.4-2.3,2.1-4.9,2.1-7.6C51,21.7,44.4,15,36.2,15z M46.8,36.2L36.4,53.5L25.7,36.3
	c-1.2-1.9-1.9-4.2-1.9-6.5c0-6.8,5.5-12.3,12.3-12.3S48.5,23,48.5,29.8C48.5,32.1,47.9,34.3,46.8,36.2z"/>
<path class="st0" d="M36.2,22.4c-4.1,0-7.4,3.3-7.4,7.4s3.3,7.4,7.4,7.4c4.2,0,7.4-3.4,7.4-7.4C43.6,25.8,40.3,22.4,36.2,22.4z
	 M36.2,34.8c-2.7,0-4.9-2.2-4.9-4.9s2.2-4.9,4.9-4.9s4.9,2.2,4.9,4.9C41.1,32.5,39,34.8,36.2,34.8z"/>
</svg>
