<?xml version="1.0" encoding="utf-8"?>
<!-- Generator: Adobe Illustrator 22.1.0, SVG Export Plug-In . SVG Version: 6.00 Build 0)  -->
<svg version="1.1" id="Layer_1" xmlns="http://www.w3.org/2000/svg" xmlns:xlink="http://www.w3.org/1999/xlink" x="0px" y="0px"
	 viewBox="0 0 60 57.7" style="enable-background:new 0 0 60 57.7;" xml:space="preserve">
<style type="text/css">
	.st0{fill:#189CDC;}
</style>
<path class="st0" d="M42.9,27.5c-4.6-10-7.1-13.8-14.7-13.6c-2.7,0.1-2.1-2-4.1-1.2c-2.1,0.8-0.3,1.9-2.4,3.6
	c-5.9,4.9-5.4,9.3-2.6,20.1c1.2,4.5-2.8,4.7-1.2,9.1c1.1,3.2,9.5,4.5,18.4,1.2s14.5-9.8,13.3-13C48,29.3,44.8,31.8,42.9,27.5
	L42.9,27.5z M35.3,44c-7.9,2.9-14.4,1.2-14.7,0.4c-0.5-1.3,2.6-5.7,11.6-9.1s14.1-2.1,14.6-0.6C47.1,35.6,43.2,41.1,35.3,44L35.3,44
	z M32.7,36.9c-4.1,1.5-7,3.3-8.9,4.9c1.3,1.2,3.8,1.5,6.2,0.6c3.1-1.2,5-3.8,4.3-5.9c0,0,0,0,0-0.1C33.8,36.5,33.3,36.7,32.7,36.9
	L32.7,36.9z"/>
</svg>
