<?xml version="1.0" encoding="utf-8"?>
<!-- Generator: Adobe Illustrator 22.1.0, SVG Export Plug-In . SVG Version: 6.00 Build 0)  -->
<svg version="1.1" xmlns="http://www.w3.org/2000/svg" xmlns:xlink="http://www.w3.org/1999/xlink" x="0px" y="0px"
	 viewBox="0 0 35.3 35.3" style="enable-background:new 0 0 35.3 35.3;" xml:space="preserve">
<style type="text/css">
	.st0{display:none;}
	.st1{display:inline;fill:#FFFFFF;}
	.st2{fill:#189CDC;}
</style>
<g id="Layer_1">
</g>
<g id="Layer_2" class="st0">
	<path class="st1" d="M23.1,9.9h-1V9.2c0-0.3-0.2-0.5-0.5-0.5S21.2,9,21.2,9.2v0.7h-7.3V9.2c0-0.3-0.2-0.5-0.5-0.5S13,9,13,9.2l0,0
		v0.7h-1c-1.3,0-2.3,1-2.3,2.3V23c0,1.3,1,2.3,2.3,2.3h11.1c1.3,0,2.3-1,2.3-2.3V12.2C25.4,10.9,24.4,9.9,23.1,9.9z M24.5,23
		c0,0.7-0.6,1.3-1.3,1.3H12c-0.7,0-1.3-0.6-1.3-1.3v-8.4h13.8L24.5,23z M24.5,13.7H10.6v-1.5c0-0.7,0.6-1.3,1.3-1.3h1v0.6
		c0,0.3,0.2,0.5,0.5,0.5s0.5-0.2,0.5-0.5v-0.6h7.3v0.6c0,0.3,0.2,0.5,0.5,0.5s0.5-0.2,0.5-0.5v-0.6h1c0.7,0,1.3,0.6,1.3,1.3
		L24.5,13.7z M14.4,20.3c-0.2-0.2-0.2-0.5,0-0.7c0.2-0.2,0.5-0.2,0.7,0l1.1,1.1L20,17c0.2-0.2,0.5-0.2,0.7,0c0.2,0.2,0.2,0.5,0,0.7
		l-4.1,4.1c-0.2,0.2-0.5,0.2-0.7,0c0,0,0,0,0,0L14.4,20.3z"/>
	
		<image style="display:inline;overflow:visible;" width="42" height="48" xlink:href="../../Nav icons/Nav icons/Active icons/Featured.png"  transform="matrix(1 0 0 1 -3.4768 -5.5834)">
	</image>
</g>
<g id="Layer_3">
	<g>
		<path class="st2" d="M13.9,22.8l-2.8,2.8c0.2,0.4,0.3,0.8,0.3,1.3c0,1.6-1.3,2.8-2.8,2.8s-2.8-1.3-2.8-2.8S7.1,24,8.6,24
			c0.7,0,1.4,0.3,1.9,0.7l2.6-2.6c-0.9-1-1.6-2.2-1.8-3.6H2v8.7c0,3.5,2.8,6.2,6.2,6.2h9.3V24C16.2,24,15,23.5,13.9,22.8z"/>
		<path class="st2" d="M13,13.4l-3.3-3.3c-0.4,0.2-0.8,0.3-1.2,0.3c-1.6,0-2.8-1.3-2.8-2.8s1.3-2.8,2.8-2.8c1.6,0,2.8,1.3,2.8,2.8
			c0,0.7-0.3,1.4-0.7,1.9l3.2,3.2c1-0.8,2.4-1.3,3.8-1.3V1.8H8.2C4.8,1.8,2,4.6,2,8.1v9.3h9.4C11.4,15.9,12,14.4,13,13.4z"/>
		<path class="st2" d="M22.7,21.6l3.1,3.1c0.5-0.4,1.1-0.6,1.7-0.6c1.6,0,2.8,1.3,2.8,2.8s-1.3,2.8-2.8,2.8s-2.8-1.3-2.8-2.8
			c0-0.5,0.2-1,0.4-1.4L22,22.4c-0.9,0.8-2.1,1.4-3.4,1.6v9.5h9.7c3.5,0,6.2-2.8,6.2-6.2v-8.7H24C23.8,19.6,23.4,20.7,22.7,21.6z"/>
		<path class="st2" d="M28.3,1.8h-9.7v9.5c1.4,0.2,2.6,0.8,3.5,1.8l3.4-3.4c-0.6-0.5-1-1.3-1-2.2c0-1.6,1.3-2.8,2.8-2.8
			c1.6,0,2.8,1.3,2.8,2.8s-1.3,2.8-2.8,2.8c-0.3,0-0.6-0.1-0.8-0.1l-3.7,3.7c0.7,1,1.2,2.2,1.2,3.5h10.5V8.1
			C34.5,4.6,31.7,1.8,28.3,1.8z"/>
	</g>
</g>
</svg>
