<?xml version="1.0" encoding="utf-8"?>
<!-- Generator: Adobe Illustrator 22.1.0, SVG Export Plug-In . SVG Version: 6.00 Build 0)  -->
<svg version="1.1" id="Layer_1" xmlns="http://www.w3.org/2000/svg" xmlns:xlink="http://www.w3.org/1999/xlink" x="0px" y="0px"
	 viewBox="0 0 35.3 35.3" style="enable-background:new 0 0 35.3 35.3;" xml:space="preserve">
<style type="text/css">
	.st0{display:none;}
	.st1{display:inline;fill:#FFFFFF;}
	.st2{fill:#BBC1CD;}
</style>
<g id="Layer_1_1_">
</g>
<g id="Layer_2_1_" class="st0">
	<path class="st1" d="M23.1,9.9h-1V9.2c0-0.3-0.2-0.5-0.5-0.5S21.2,9,21.2,9.2v0.7h-7.3V9.2c0-0.3-0.2-0.5-0.5-0.5S13,9,13,9.2l0,0
		v0.7h-1c-1.3,0-2.3,1-2.3,2.3V23c0,1.3,1,2.3,2.3,2.3h11.1c1.3,0,2.3-1,2.3-2.3V12.2C25.4,10.9,24.4,9.9,23.1,9.9z M24.5,23
		c0,0.7-0.6,1.3-1.3,1.3H12c-0.7,0-1.3-0.6-1.3-1.3v-8.4h13.8V23z M24.5,13.7H10.6v-1.5c0-0.7,0.6-1.3,1.3-1.3h1v0.6
		c0,0.3,0.2,0.5,0.5,0.5s0.5-0.2,0.5-0.5v-0.6h7.3v0.6c0,0.3,0.2,0.5,0.5,0.5s0.5-0.2,0.5-0.5v-0.6h1c0.7,0,1.3,0.6,1.3,1.3V13.7z
		 M14.4,20.3c-0.2-0.2-0.2-0.5,0-0.7s0.5-0.2,0.7,0l1.1,1.1L20,17c0.2-0.2,0.5-0.2,0.7,0s0.2,0.5,0,0.7l-4.1,4.1
		c-0.2,0.2-0.5,0.2-0.7,0l0,0L14.4,20.3z"/>
	
		<image style="display:inline;overflow:visible;enable-background:new    ;" width="42" height="48" xlink:href="../../Nav icons/Nav icons/Active icons/Featured.png"  transform="matrix(1 0 0 1 -3.4768 -5.5834)">
	</image>
</g>
<g>
	<path class="st2" d="M7,10.3c-1.4,0-2.4-1-2.4-2.4s1-2.4,2.4-2.4h23.9c1.4,0,2.4,1.1,2.4,2.4s-1.1,2.4-2.4,2.4H7z"/>
	<path class="st2" d="M30.9,16.2c1.4,0,2.4,1.1,2.4,2.4S32.2,21,30.9,21H7c-1.4,0-2.4-1-2.4-2.4s1-2.4,2.4-2.4H30.9z"/>
	<path class="st2" d="M30.9,27c1.4,0,2.4,1,2.4,2.4s-1.1,2.4-2.4,2.4H7c-1.4,0-2.4-1.1-2.4-2.4C4.6,28,5.6,27,7,27H30.9z"/>
</g>
</svg>
