<?xml version="1.0" encoding="utf-8"?>
<!-- Generator: Adobe Illustrator 22.1.0, SVG Export Plug-In . SVG Version: 6.00 Build 0)  -->
<svg version="1.1" id="Layer_1" xmlns="http://www.w3.org/2000/svg" xmlns:xlink="http://www.w3.org/1999/xlink" x="0px" y="0px"
	 viewBox="0 0 34.1 34.1" style="enable-background:new 0 0 34.1 34.1;" xml:space="preserve">
<style type="text/css">
	.st0{fill:#BBC1CD;}
</style>
<title>Search blue</title>
<path class="st0" d="M24,21.3l10.1,10.1l-2.7,2.7L21.3,24c-2.3,1.7-5.1,2.7-8,2.7C6,26.7,0,20.7,0,13.4c0,0,0,0,0,0
	C-0.1,6,5.8,0.1,13.1,0c0.1,0,0.1,0,0.2,0c7.3-0.1,13.3,5.8,13.3,13.1c0,0.1,0,0.1,0,0.2C26.7,16.2,25.7,19,24,21.3z M13.3,22.9
	c5.3,0,9.5-4.3,9.5-9.5c0.1-5.2-4.1-9.5-9.3-9.6c-0.1,0-0.1,0-0.2,0c-5.2,0-9.5,4.2-9.5,9.4c0,0.1,0,0.1,0,0.2
	C3.8,18.6,8,22.9,13.3,22.9C13.3,22.9,13.3,22.9,13.3,22.9z"/>
</svg>
