<?xml version="1.0" encoding="utf-8"?>
<!-- Generator: Adobe Illustrator 22.1.0, SVG Export Plug-In . SVG Version: 6.00 Build 0)  -->
<svg version="1.1" id="Layer_1" xmlns="http://www.w3.org/2000/svg" xmlns:xlink="http://www.w3.org/1999/xlink" x="0px" y="0px"
	 viewBox="0 0 51.7 49.3" style="enable-background:new 0 0 51.7 49.3;" xml:space="preserve">
<style type="text/css">
	.st0{fill:#747578;}
</style>
<path class="st0" d="M36.7,36.4c-0.2-1-0.8-1.8-1.6-2.3c0.2-0.1,0.3-0.3,0.4-0.4c0.6-0.7,0.9-1.7,0.8-2.7c-0.2-1.6-0.9-3.1-2-4.3
	c-0.8-0.9-1.7-1.6-2.8-2.2c1.3-1.4,2.1-3.3,2.1-5.3c0-3.6-2.4-6.6-5.7-7.5c0.4-0.5,0.7-1.2,0.7-1.9c0-1.4-1.1-2.5-2.5-2.5
	c0,0,0,0,0,0c-0.6,0-1.1,0.2-1.5,0.5C24.2,8.1,24,8.6,24,9.2c0,0.4,0.3,0.7,0.7,0.7l0,0c0.4,0,0.7-0.3,0.7-0.7
	c0-0.2,0.1-0.3,0.2-0.4c0.1-0.1,0.4-0.2,0.6-0.2h0c0.6,0,1.1,0.5,1.1,1.1c0,0.4-0.2,0.8-0.5,1.1c-0.3,0.3-0.7,0.5-1.1,0.5
	c0,0,0,0,0,0c0,0,0,0,0,0c-4.2,0.1-7.6,3.6-7.6,7.8c0,2.1,0.8,3.9,2.1,5.3c-1.1,0.5-2,1.3-2.8,2.2c-1,1.2-1.7,2.7-2,4.3
	c-0.1,1,0.1,2,0.8,2.7c0.1,0.2,0.3,0.3,0.4,0.4c-0.8,0.5-1.4,1.3-1.6,2.3c-0.2,1,0.1,1.9,0.7,2.7l1.5,1.9c0.6,0.8,1.5,1.2,2.4,1.2
	c0.5,0,1-0.1,1.5-0.4c1.3-0.7,1.9-2.4,1.3-3.8l-0.9-2.2c-0.1-0.1-0.1-0.3-0.2-0.4h5c0.4,0,0.7-0.3,0.7-0.7S26.5,34,26.2,34h-6.3
	v-1.4c0-0.2,0.2-0.3,0.3-0.3h11.2c0.2,0,0.3,0.2,0.3,0.3v1.5c-0.7,0.4-1.2,1-1.5,1.7l-0.9,2.2c-0.6,1.4,0,3,1.3,3.8
	c0.5,0.3,1,0.4,1.5,0.4c0.9,0,1.8-0.4,2.4-1.2l1.5-1.9C36.6,38.3,36.9,37.3,36.7,36.4z M25.8,12.7c3.6,0,6.4,2.9,6.4,6.4
	c0,3.6-2.9,6.4-6.4,6.4c-3.6,0-6.4-2.9-6.4-6.4C19.4,15.6,22.3,12.7,25.8,12.7z M16.7,31.2c0.4-2.6,2.1-4.7,4.5-5.7
	c1.3,0.9,2.9,1.5,4.6,1.5s3.3-0.5,4.6-1.5c2.4,0.9,4.2,3.1,4.5,5.7c0.1,0.6-0.1,1.2-0.5,1.6c-0.3,0.4-0.8,0.6-1.3,0.7v-1
	c0-0.7-0.4-1.3-1-1.6v-0.8c0-0.4-0.3-0.7-0.7-0.7c-0.4,0-0.7,0.3-0.7,0.7v0.7h-9.9v-0.7c0-0.4-0.3-0.7-0.7-0.7s-0.7,0.3-0.7,0.7V31
	c-0.6,0.3-1,0.9-1,1.6v1c-0.5-0.1-1-0.3-1.3-0.7C16.8,32.3,16.6,31.8,16.7,31.2z M20.3,40.5c-0.7,0.4-1.6,0.2-2.1-0.4l-1.5-1.9
	c-0.4-0.5-0.5-1-0.4-1.6c0.1-0.6,0.5-1.1,1-1.4c0.5-0.3,1.1-0.3,1.7-0.2c0.5,0.2,1,0.6,1.2,1.1l0.9,2.2C21.3,39.2,21,40.1,20.3,40.5
	z M35,38.2l-1.5,1.9c-0.5,0.6-1.4,0.8-2.1,0.4c-0.7-0.4-1-1.3-0.7-2.1l0.9-2.2c0.2-0.5,0.7-1,1.2-1.1C33,35,33.2,35,33.4,35
	c0.3,0,0.7,0.1,1,0.3c0.5,0.3,0.9,0.8,1,1.4C35.5,37.2,35.3,37.8,35,38.2z"/>
<path class="st0" d="M23.9,22.5c0.5,0.6,1.2,0.9,2,0.9s1.5-0.3,2-0.9c0.2-0.3,0.2-0.7-0.1-1c-0.3-0.2-0.7-0.2-1,0.1
	c-0.2,0.3-0.6,0.4-0.9,0.4s-0.7-0.2-0.9-0.4c-0.2-0.3-0.7-0.3-1-0.1C23.7,21.7,23.6,22.2,23.9,22.5z"/>
<path class="st0" d="M22.8,19.7c0.1-0.1,0.2-0.1,0.3,0c0.1,0.1,0.3,0.2,0.5,0.2s0.3-0.1,0.5-0.2c0.3-0.3,0.3-0.7,0-1
	c-0.6-0.6-1.6-0.6-2.2,0c-0.3,0.3-0.3,0.7,0,1C22.1,19.9,22.6,19.9,22.8,19.7z"/>
<path class="st0" d="M28,19.9c0.2,0,0.3-0.1,0.5-0.2c0.1-0.1,0.2-0.1,0.3,0c0.3,0.3,0.7,0.3,1,0c0.3-0.3,0.3-0.7,0-1
	c-0.6-0.6-1.6-0.6-2.2,0c-0.3,0.3-0.3,0.7,0,1C27.7,19.8,27.9,19.9,28,19.9z"/>
</svg>
