<?xml version="1.0" encoding="utf-8"?>
<!-- Generator: Adobe Illustrator 22.1.0, SVG Export Plug-In . SVG Version: 6.00 Build 0)  -->
<svg version="1.1" id="Layer_1" xmlns="http://www.w3.org/2000/svg" xmlns:xlink="http://www.w3.org/1999/xlink" x="0px" y="0px"
	 viewBox="0 0 50.1 51.4" style="enable-background:new 0 0 50.1 51.4;" xml:space="preserve">
<style type="text/css">
	.st0{fill:#B9BABE;}
</style>
<path class="st0" d="M31.2,35.8c-0.8,0-1.9-0.2-3-0.6c-2.5-0.9-5.1-2.8-7.5-5.2c-2.4-2.4-4.2-5.1-5.2-7.5c-0.8-2.2-0.8-4.1,0-4.9
	c0.1-0.1,0.2-0.3,0.4-0.4c0.8-0.8,1.6-1.7,2.8-1.7c0.8,0,1.6,0.5,2.3,1.5c2.3,2.9,1.3,3.9,0.1,5.1l-0.2,0.2
	c-0.2,0.2-0.6,1.1,2.9,4.6c1.1,1.1,2.1,2,2.9,2.5c0.5,0.3,1.4,0.8,1.7,0.4l0.2-0.2c1.2-1.2,2.2-2.3,5.1,0.1c1,0.8,1.5,1.6,1.5,2.3
	c0,1.1-0.9,2-1.7,2.8c-0.1,0.1-0.3,0.3-0.4,0.4C32.7,35.6,32.1,35.8,31.2,35.8L31.2,35.8z M18.6,16.2c-0.8,0-1.6,0.8-2.2,1.5
	c-0.1,0.1-0.3,0.3-0.4,0.4c-0.6,0.6-0.6,2.3,0.2,4.2c0.9,2.4,2.7,5,5,7.3c2.3,2.3,4.9,4.1,7.3,5c1.9,0.7,3.6,0.8,4.2,0.2
	c0.1-0.1,0.3-0.3,0.4-0.4c0.7-0.7,1.5-1.4,1.5-2.3c0-0.6-0.4-1.2-1.2-1.8c-2.4-1.9-3.1-1.3-4.2-0.1l-0.2,0.2
	c-0.5,0.5-1.4,0.4-2.6-0.3c-0.8-0.5-1.8-1.4-3-2.6c-2.9-2.9-3.8-4.7-2.9-5.6l0.2-0.2c1.1-1.1,1.8-1.8-0.1-4.2
	C19.9,16.7,19.2,16.2,18.6,16.2C18.6,16.2,18.6,16.2,18.6,16.2L18.6,16.2z M18.6,16.2"/>
</svg>
