<?xml version="1.0" encoding="utf-8"?>
<!-- Generator: Adobe Illustrator 22.1.0, SVG Export Plug-In . SVG Version: 6.00 Build 0)  -->
<svg version="1.1" id="Layer_1" xmlns="http://www.w3.org/2000/svg" xmlns:xlink="http://www.w3.org/1999/xlink" x="0px" y="0px"
	 viewBox="0 0 72.7 67.6" style="enable-background:new 0 0 72.7 67.6;" xml:space="preserve">
<style type="text/css">
	.st0{fill:#FFFFFF;}
	.st1{fill:none;}
</style>
<g>
	<path class="st0" d="M11.2,13.4h5.6l8,29.1c0.2,0.9,1,1.4,1.9,1.4h24.7c0.8,0,1.5-0.5,1.8-1.2l9-20.7c0.3-0.6,0.2-1.3-0.2-1.9
		c-0.4-0.6-1-0.9-1.6-0.9H33.2c-1.1,0-2,0.9-2,2c0,1.1,0.9,2,2,2h24.3L50.2,40H28.3l-8-29.1c-0.2-0.9-1-1.4-1.9-1.4h-7.1
		c-1.1,0-2,0.9-2,2C9.3,12.5,10.1,13.4,11.2,13.4L11.2,13.4z M11.2,13.4"/>
	<rect x="9.3" y="9.5" class="st1" width="53.2" height="48.3"/>
	<path class="st0" d="M24.9,57.8c2.5,0,4.5-2,4.5-4.5c0-2.5-2-4.5-4.5-4.5c-2.5,0-4.5,2-4.5,4.5C20.5,55.8,22.5,57.8,24.9,57.8
		L24.9,57.8z M24.9,57.8"/>
	<path class="st0" d="M52.8,57.8h0.3c1.2-0.1,2.3-0.6,3.1-1.5c0.8-0.9,1.1-2,1.1-3.2c-0.2-2.4-2.3-4.3-4.8-4.1
		c-2.5,0.2-4.3,2.3-4.1,4.8C48.6,55.9,50.5,57.8,52.8,57.8L52.8,57.8z M52.8,57.8"/>
</g>
</svg>
