<?xml version="1.0" encoding="utf-8"?>
<!-- Generator: Adobe Illustrator 22.1.0, SVG Export Plug-In . SVG Version: 6.00 Build 0)  -->
<svg version="1.1" id="Layer_1" xmlns="http://www.w3.org/2000/svg" xmlns:xlink="http://www.w3.org/1999/xlink" x="0px" y="0px"
	 viewBox="0 0 51.7 49.3" style="enable-background:new 0 0 51.7 49.3;" xml:space="preserve">
<style type="text/css">
	.st0{fill:#6D6D6D;}
</style>
<g>
	<path class="st0" d="M36.5,19c-1.3-3.1-3.6-5.4-6.7-6.7c-1.6-0.7-3.2-1-4.9-1c-1.7,0-3.3,0.3-4.9,1c-3.1,1.3-5.4,3.6-6.7,6.7
		c-0.7,1.6-1,3.2-1,4.9c0,1.7,0.3,3.4,1,4.9c1.3,3.1,3.6,5.4,6.7,6.7c1.6,0.7,3.2,1,4.9,1c1.7,0,3.3-0.3,4.9-1
		c3.1-1.3,5.4-3.6,6.7-6.7c0.7-1.6,1-3.2,1-4.9C37.5,22.2,37.2,20.5,36.5,19L36.5,19z M34.5,29.5c-1,1.7-2.3,3-4.1,4
		c-1.7,1-3.6,1.5-5.6,1.5c-1.5,0-2.9-0.3-4.3-0.9c-1.4-0.6-2.5-1.4-3.5-2.4c-1-1-1.8-2.2-2.4-3.5c-0.6-1.4-0.9-2.8-0.9-4.3
		c0-2,0.5-3.9,1.5-5.5c1-1.7,2.3-3,4-4c1.7-1,3.5-1.5,5.5-1.5c2,0,3.9,0.5,5.6,1.5c1.7,1,3.1,2.3,4.1,4c1,1.7,1.5,3.5,1.5,5.5
		C36,25.9,35.5,27.8,34.5,29.5L34.5,29.5z M34.5,29.5"/>
	<path class="st0" d="M25.7,23.8v-7.1c0-0.4-0.4-0.8-0.8-0.8c-0.4,0-0.8,0.3-0.8,0.8v7.3c0,0,0,0.1,0,0.1c0,0.2,0,0.5,0.2,0.6
		l4.1,4.1c0.3,0.3,0.8,0.3,1.1,0c0.3-0.3,0.3-0.8,0-1.1L25.7,23.8z M25.7,23.8"/>
</g>
</svg>
