<?xml version="1.0" encoding="utf-8"?>
<!-- Generator: Adobe Illustrator 22.1.0, SVG Export Plug-In . SVG Version: 6.00 Build 0)  -->
<svg version="1.1" id="Layer_1" xmlns="http://www.w3.org/2000/svg" xmlns:xlink="http://www.w3.org/1999/xlink" x="0px" y="0px"
	 viewBox="0 0 51.7 49.3" style="enable-background:new 0 0 51.7 49.3;" xml:space="preserve">
<style type="text/css">
	.st0{fill:#189CDC;}
</style>
<path class="st0" d="M21.5,38h-4.6c-0.6,0-1.1-0.5-1.2-1.1l-0.2-14.3v-4.7c0-0.6,0.5-1.1,1.1-1.1h11.2v-4.2c0-0.4,0.2-0.8,0.6-1
	c0.4-0.2,0.8-0.2,1.1,0.1l11,7.3c0.4,0.2,0.6,0.7,0.6,1.1c0,0.4-0.2,0.8-0.6,1.1l-10.5,7c-0.4,0.3-1,0.3-1.5,0.1
	c-0.5-0.3-0.8-0.7-0.8-1.3v-3.6h-5.2v13.6C22.7,37.5,22.1,38,21.5,38z M17.1,36.7h4.3V21.9h7.8v4.9c0,0.1,0,0.1,0.1,0.1
	c0,0,0.1,0,0.2,0l10.5-7l-10.7-7.2V18H16.9v4.6L17.1,36.7z"/>
</svg>
