<?xml version="1.0" encoding="utf-8"?>
<!-- Generator: Adobe Illustrator 22.1.0, SVG Export Plug-In . SVG Version: 6.00 Build 0)  -->
<svg version="1.1" id="Layer_1" xmlns="http://www.w3.org/2000/svg" xmlns:xlink="http://www.w3.org/1999/xlink" x="0px" y="0px"
	 viewBox="0 0 72.7 67.6" style="enable-background:new 0 0 72.7 67.6;" xml:space="preserve">
<style type="text/css">
	.st0{fill:#BDC2CE;}
</style>
<path class="st0" d="M55.3,21.7c0-3.6-3-6.6-6.6-6.6c-3.6,0-6.6,3-6.6,6.6c0,3.2,4.7,9.6,5.8,11c0,0.5,0,0.9,0,1.4
	c0,0.5,0.3,0.8,0.8,0.8c0,0,0,0,0,0c0.4,0,0.8-0.4,0.8-0.8c0-0.4,0-0.9,0-1.4C50.6,31.3,55.3,24.9,55.3,21.7z M47.1,21.7
	c0-0.9,0.7-1.7,1.7-1.7s1.7,0.7,1.7,1.7s-0.7,1.7-1.7,1.7S47.1,22.7,47.1,21.7z"/>
<path class="st0" d="M40.9,39c-1.4,0.8-2.1,2.1-2.6,3.1c-0.2,0.4,0,0.9,0.4,1.1c0.1,0.1,0.2,0.1,0.4,0.1c0.3,0,0.6-0.2,0.7-0.5
	c0.6-1.2,1.2-1.9,1.9-2.3c0.4-0.2,0.5-0.7,0.3-1.1C41.8,38.9,41.3,38.7,40.9,39z"/>
<path class="st0" d="M34,50.8c-0.8,0.7-1.8,1.2-2.9,1.5c-0.4,0.1-0.7,0.6-0.5,1c0.1,0.3,0.4,0.6,0.8,0.6c0.1,0,0.2,0,0.3,0
	c1.3-0.4,2.4-1,3.4-1.8c0.4-0.3,0.4-0.8,0.1-1.2C34.8,50.6,34.3,50.5,34,50.8z"/>
<path class="st0" d="M38.1,44.9c-0.4-0.2-0.9,0-1.1,0.5c-0.4,1-0.8,2.1-1.5,3.1c-0.2,0.4-0.1,0.9,0.3,1.1c0.1,0.1,0.3,0.1,0.4,0.1
	c0.3,0,0.6-0.1,0.7-0.4c0.7-1.1,1.2-2.3,1.6-3.4C38.7,45.6,38.5,45.1,38.1,44.9z"/>
<path class="st0" d="M47.3,37.1c-0.3,0.4-0.8,1-2.5,1.1c-0.5,0-0.8,0.4-0.7,0.9c0,0.4,0.4,0.8,0.8,0.8c0,0,0.1,0,0.1,0
	c1.8-0.2,3-0.8,3.7-1.8c0.3-0.4,0.2-0.9-0.2-1.1C48,36.7,47.5,36.8,47.3,37.1z"/>
<path class="st0" d="M27.5,53.2c2.6-2.8,8-9.2,8-14.9c0-5.6-4.4-9.9-9.9-9.9s-9.9,4.4-9.9,9.9c0,7.3,8.8,15.8,9.3,16.3c0,0,0,0,0,0
	c0,0,0,0,0,0c0,0,0.1,0,0.1,0.1c0,0,0.1,0.1,0.1,0.1c0.1,0,0.2,0.1,0.3,0.1c0.6,0,1.2,0,1.7-0.1c0.5,0,0.8-0.4,0.8-0.9
	C28,53.5,27.8,53.3,27.5,53.2z M20.6,38.3c0-2.7,2.2-5,5-5s5,2.2,5,5c0,2.7-2.2,5-5,5S20.6,41,20.6,38.3z"/>
</svg>
