<?xml version="1.0" encoding="utf-8"?>
<!-- Generator: Adobe Illustrator 22.1.0, SVG Export Plug-In . SVG Version: 6.00 Build 0)  -->
<svg version="1.1" id="Layer_1" xmlns="http://www.w3.org/2000/svg" xmlns:xlink="http://www.w3.org/1999/xlink" x="0px" y="0px"
	 viewBox="0 0 72.7 67.6" style="enable-background:new 0 0 72.7 67.6;" xml:space="preserve">
<style type="text/css">
	.st0{fill:#FFFFFF;}
</style>
<g>
	<path class="st0" d="M35,56.8c-0.7,0-1.4-0.3-1.9-0.7c-2-1.7-3.9-3.3-5.5-4.8l0,0c-4.9-4.2-9.1-7.8-12.1-11.3
		c-3.3-4-4.8-7.7-4.8-11.9c0-4,1.4-7.7,3.9-10.4c2.5-2.7,6-4.2,9.7-4.2c2.8,0,5.4,0.9,7.6,2.6c1.1,0.9,2.2,2,3.1,3.2
		c0.9-1.3,1.9-2.3,3.1-3.2c2.3-1.8,4.8-2.6,7.6-2.6c3.8,0,7.2,1.5,9.7,4.2c2.5,2.7,3.9,6.4,3.9,10.4c0,4.1-1.5,7.9-4.8,11.9
		c-2.9,3.6-7.2,7.2-12.1,11.3c-1.7,1.4-3.6,3-5.5,4.8C36.4,56.5,35.7,56.8,35,56.8L35,56.8z M24.3,16.3c-3,0-5.7,1.2-7.6,3.3
		c-2,2.2-3.1,5.2-3.1,8.5c0,3.5,1.3,6.6,4.2,10c2.8,3.4,6.9,6.9,11.7,11l0,0c1.7,1.4,3.6,3.1,5.6,4.8c2-1.7,3.9-3.4,5.6-4.8
		c4.8-4.1,8.9-7.6,11.7-11c2.9-3.5,4.2-6.6,4.2-10c0-3.3-1.1-6.3-3.1-8.5c-2-2.1-4.7-3.3-7.6-3.3c-2.2,0-4.1,0.7-5.9,2
		c-1.6,1.2-2.7,2.7-3.3,3.8C36.2,22.7,35.6,23,35,23c-0.6,0-1.2-0.3-1.5-0.9c-0.6-1.1-1.7-2.6-3.3-3.8C28.4,17,26.4,16.3,24.3,16.3
		L24.3,16.3z M24.3,16.3"/>
</g>
</svg>
