<?xml version="1.0" encoding="utf-8"?>
<!-- Generator: Adobe Illustrator 22.1.0, SVG Export Plug-In . SVG Version: 6.00 Build 0)  -->
<svg version="1.1" id="Layer_1" xmlns="http://www.w3.org/2000/svg" xmlns:xlink="http://www.w3.org/1999/xlink" x="0px" y="0px"
	 viewBox="0 0 72.7 67.6" style="enable-background:new 0 0 72.7 67.6;" xml:space="preserve">
<style type="text/css">
	.st0{fill:#333739;}
</style>
<g>
	<path class="st0" d="M23.3,49.4c0,0,0,0.9,0.9,0.9c1.1,0,10.4,0,10.4,0l0-8.5c0,0-0.1-1.4,1.2-1.4h4.3c1.6,0,1.5,1.4,1.5,1.4l0,8.5
		h10.1c1.1,0,1.1-1.1,1.1-1.1V33.4L38.5,20.7L23.3,33.4V49.4z M23.3,49.4"/>
	<path class="st0" d="M17.8,32.3c0,0,1.3,2.4,4.1,0l16.8-14.2l15.7,14.1c3.3,2.3,4.5,0,4.5,0L38.6,13.9L17.8,32.3z M17.8,32.3"/>
	<path class="st0" d="M54,18h-4l0,4.9l4,3.4V18z M54,18"/>
</g>
</svg>
