<?xml version="1.0" encoding="utf-8"?>
<!-- Generator: Adobe Illustrator 22.1.0, SVG Export Plug-In . SVG Version: 6.00 Build 0)  -->
<svg version="1.1" id="Layer_1" xmlns="http://www.w3.org/2000/svg" xmlns:xlink="http://www.w3.org/1999/xlink" x="0px" y="0px"
	 viewBox="0 0 141 132.8" style="enable-background:new 0 0 141 132.8;" xml:space="preserve">
<style type="text/css">
	.st0{fill:#CFD3DC;}
	.st1{fill:#FFFFFF;}
</style>
<circle class="st0" cx="69.4" cy="67.4" r="61.3"/>
<g>
	<path class="st1" d="M68.8,42.6c-9.7,0-17.6,7.9-17.6,17.6c0,3.3,0.9,6.5,2.6,9.2l14,22.5c0.3,0.4,0.7,0.7,1.2,0.7c0,0,0,0,0,0
		c0.5,0,1-0.3,1.2-0.7l13.6-22.7c1.6-2.7,2.5-5.8,2.5-9C86.3,50.5,78.5,42.6,68.8,42.6z M81.3,67.7L69,88.3L56.3,67.9
		c-1.4-2.3-2.2-5-2.2-7.7c0-8.1,6.6-14.7,14.7-14.7s14.7,6.6,14.7,14.7C83.4,62.8,82.7,65.4,81.3,67.7z"/>
	<path class="st1" d="M68.8,51.4c-4.8,0-8.8,3.9-8.8,8.8c0,4.8,3.9,8.8,8.8,8.8c5,0,8.8-4,8.8-8.8C77.6,55.3,73.6,51.4,68.8,51.4z
		 M68.8,66c-3.2,0-5.9-2.6-5.9-5.9c0-3.2,2.6-5.9,5.9-5.9c3.2,0,5.9,2.6,5.9,5.9C74.6,63.3,72.1,66,68.8,66z"/>
</g>
</svg>
