<?xml version="1.0" encoding="utf-8"?>
<!-- Generator: Adobe Illustrator 22.1.0, SVG Export Plug-In . SVG Version: 6.00 Build 0)  -->
<svg version="1.1" id="Layer_1" xmlns="http://www.w3.org/2000/svg" xmlns:xlink="http://www.w3.org/1999/xlink" x="0px" y="0px"
	 viewBox="0 0 60 57.7" style="enable-background:new 0 0 60 57.7;" xml:space="preserve">
<style type="text/css">
	.st0{fill:#333739;}
</style>
<g>
	<path class="st0" d="M48.3,31.5c0.9-1.3,0.9-3,0-4.2l-1.5-2.2c-0.1-0.3-0.2-0.5-0.2-0.8l0.2-2.7c0.1-1.5-0.7-3-2.1-3.6l-2.4-1.2
		c-0.3-0.1-0.4-0.3-0.6-0.6l-1.2-2.4c-0.7-1.4-2.1-2.2-3.6-2.1l-2.7,0.2c-0.3,0-0.6,0-0.8-0.2l-2.2-1.5l0,0c-1.3-0.9-2.9-0.9-4.2,0
		l-2.2,1.5c-0.3,0.1-0.6,0.2-0.9,0.2l-2.7-0.2c-1.5-0.1-3,0.7-3.6,2.1l-1.2,2.4c-0.1,0.3-0.3,0.4-0.6,0.6l-2.4,1.2
		c-1.4,0.7-2.2,2.1-2.1,3.6l0.2,2.7c0,0.3,0,0.6-0.2,0.8l-1.5,2.2c-0.9,1.3-0.9,3,0,4.2l1.5,2.2c0.1,0.3,0.2,0.6,0.2,0.9l-0.2,2.7
		c-0.1,1.5,0.7,3,2.1,3.6l2.4,1.2c0.3,0.1,0.4,0.3,0.6,0.6l1.2,2.4c0.7,1.4,2.1,2.2,3.6,2.1l2.7-0.2c0.3,0,0.6,0,0.8,0.2l2.2,1.5
		c0.6,0.4,1.4,0.6,2.1,0.6s1.5-0.2,2.1-0.6l2.2-1.5c0.2-0.1,0.5-0.2,0.8-0.2l2.7,0.2c1.5,0.1,3-0.7,3.6-2.1l1.2-2.4
		c0.1-0.3,0.3-0.4,0.6-0.6l2.4-1.2c1.4-0.7,2.2-2.1,2.1-3.6l-0.1-2.7c0-0.3,0-0.6,0.2-0.8L48.3,31.5z M46.2,30.1l-1.5,2.2
		c-0.5,0.7-0.7,1.5-0.6,2.3l0.2,2.7c0,0.5-0.3,1-0.7,1.2l-2.4,1.2c-0.7,0.4-1.3,1-1.7,1.7l-1.2,2.4c-0.2,0.5-0.7,0.7-1.2,0.7
		l-2.7-0.1c-0.8,0-1.6,0.2-2.3,0.6l-2.2,1.5c-0.4,0.3-1,0.3-1.4,0l-2.2-1.5c-0.6-0.4-1.4-0.6-2.1-0.6c-0.1,0-0.1,0-0.2,0l-2.7,0.2
		c-0.5,0-1-0.3-1.2-0.7l-1.2-2.4c-0.4-0.7-1-1.3-1.7-1.7l-2.4-1.2c-0.5-0.2-0.7-0.7-0.7-1.2l0.2-2.7c0-0.8-0.2-1.6-0.6-2.3L12,30.2
		c-0.3-0.4-0.3-1,0-1.4l1.5-2.2c0.5-0.7,0.7-1.5,0.6-2.3L14,21.5c0-0.5,0.3-1,0.7-1.2l2.4-1.2c0.7-0.4,1.3-1,1.7-1.7L20,15
		c0.2-0.5,0.7-0.7,1.2-0.7l2.7,0.2c0.8,0,1.6-0.2,2.3-0.6l2.2-1.5c0.4-0.3,1-0.3,1.4,0l2.2,1.5c0.7,0.5,1.5,0.7,2.3,0.6l2.7-0.2
		c0.5,0,1,0.3,1.2,0.7l1.2,2.4c0.4,0.7,1,1.3,1.7,1.7l2.4,1.2c0.5,0.2,0.7,0.7,0.7,1.2l-0.2,2.6c0,0.8,0.2,1.6,0.6,2.3l1.5,2.2
		C46.5,29.2,46.5,29.7,46.2,30.1z"/>
	<path class="st0" d="M24.1,28.6c2.6,0,4.8-2.1,4.8-4.8S26.8,19,24.1,19s-4.8,2.1-4.8,4.8C19.4,26.5,21.5,28.6,24.1,28.6z
		 M24.1,21.7c1.2,0,2.2,1,2.2,2.2s-1,2.1-2.2,2.1S22,25,22,23.8C22,22.6,22.9,21.7,24.1,21.7z"/>
	<path class="st0" d="M34,30.3c-2.6,0-4.8,2.1-4.8,4.8c0,2.6,2.1,4.8,4.8,4.8s4.8-2.1,4.8-4.8C38.8,32.4,36.7,30.3,34,30.3z
		 M34,37.2c-1.2,0-2.2-1-2.2-2.2s1-2.2,2.2-2.2c1.2,0,2.2,1,2.2,2.2S35.2,37.2,34,37.2z"/>
	<path class="st0" d="M38.2,20.3c-0.5-0.5-1.3-0.5-1.8,0L20,36.7c-0.5,0.5-0.5,1.3,0,1.8c0.3,0.3,0.6,0.4,0.9,0.4
		c0.3,0,0.6-0.1,0.9-0.4l16.3-16.3C38.6,21.7,38.6,20.8,38.2,20.3z"/>
</g>
</svg>
