<?xml version="1.0" encoding="utf-8"?>
<!-- Generator: Adobe Illustrator 22.1.0, SVG Export Plug-In . SVG Version: 6.00 Build 0)  -->
<svg version="1.1" id="Layer_1" xmlns="http://www.w3.org/2000/svg" xmlns:xlink="http://www.w3.org/1999/xlink" x="0px" y="0px"
	 viewBox="0 0 51.2 51.2" style="enable-background:new 0 0 51.2 51.2;" xml:space="preserve">
<style type="text/css">
	.st0{fill:#1A9CDB;}
</style>
<path class="st0" d="M25.8,2.8C13.5,2.8,3.4,12.8,3.4,25.2s10.1,22.4,22.4,22.4s22.4-10.1,22.4-22.4S38.2,2.8,25.8,2.8z M25.8,45.1
	c-11,0-19.9-8.9-19.9-19.9S14.8,5.2,25.8,5.2s19.9,8.9,19.9,19.9S36.8,45.1,25.8,45.1z"/>
<path class="st0" d="M33.3,23.9h-6.2v-6.2c0-0.7-0.6-1.2-1.2-1.2c-0.7,0-1.2,0.6-1.2,1.2v6.2h-6.2c-0.7,0-1.2,0.6-1.2,1.2
	c0,0.7,0.6,1.2,1.2,1.2h6.2v6.2c0,0.7,0.6,1.2,1.2,1.2c0.7,0,1.2-0.6,1.2-1.2v-6.2h6.2c0.7,0,1.2-0.6,1.2-1.2
	C34.6,24.5,34,23.9,33.3,23.9z"/>
</svg>
