<?xml version="1.0" encoding="utf-8"?>
<!-- Generator: Adobe Illustrator 22.1.0, SVG Export Plug-In . SVG Version: 6.00 Build 0)  -->
<svg version="1.1" id="Layer_1" xmlns="http://www.w3.org/2000/svg" xmlns:xlink="http://www.w3.org/1999/xlink" x="0px" y="0px"
	 viewBox="0 0 51.2 51.2" style="enable-background:new 0 0 51.2 51.2;" xml:space="preserve">
<style type="text/css">
	.st0{fill:#333739;}
</style>
<g>
	<path class="st0" d="M24.5,27.1c4.7,0,8.6-3.8,8.6-8.6c0-4.7-3.8-8.6-8.6-8.6c-4.7,0-8.6,3.8-8.6,8.6S19.8,27.1,24.5,27.1
		L24.5,27.1z M24.5,12.2c3.5,0,6.3,2.8,6.3,6.3s-2.8,6.3-6.3,6.3c-3.5,0-6.3-2.8-6.3-6.3S21.1,12.2,24.5,12.2L24.5,12.2z M24.5,12.2
		"/>
	<path class="st0" d="M9.7,40.5h29.8c0.6,0,1.1-0.5,1.1-1.1c0-5.9-4.8-10.8-10.8-10.8H19.3c-5.9,0-10.8,4.8-10.8,10.8
		C8.6,40,9.1,40.5,9.7,40.5L9.7,40.5z M19.3,30.9h10.5c4.3,0,7.9,3.2,8.4,7.4H10.9C11.4,34.1,15,30.9,19.3,30.9L19.3,30.9z
		 M19.3,30.9"/>
</g>
</svg>
