<?xml version="1.0" encoding="utf-8"?>
<!-- Generator: Adobe Illustrator 22.1.0, SVG Export Plug-In . SVG Version: 6.00 Build 0)  -->
<svg version="1.1" id="Layer_1" xmlns="http://www.w3.org/2000/svg" xmlns:xlink="http://www.w3.org/1999/xlink" x="0px" y="0px"
	 viewBox="0 0 43.1 51" style="enable-background:new 0 0 43.1 51;" xml:space="preserve">
<style type="text/css">
	.st0{fill:#BDC2CE;}
</style>
<g>
	<path class="st0" d="M32.2,32.8c-2.3,0-4.4,1.1-5.7,2.8l-11.1-6.2c0.3-0.7,0.4-1.5,0.4-2.4c0-0.8-0.1-1.6-0.4-2.4l11.1-6.2
		c1.3,1.7,3.4,2.8,5.7,2.8c4,0,7.2-3.2,7.2-7.2s-3.2-7.2-7.2-7.2c-4,0-7.2,3.2-7.2,7.2c0,0.8,0.1,1.6,0.4,2.4l-11.1,6.2
		c-1.3-1.7-3.4-2.8-5.7-2.8c-4,0-7.2,3.2-7.2,7.2s3.2,7.2,7.2,7.2c2.3,0,4.4-1.1,5.7-2.8l11.1,6.2C25.2,38.3,25,39.1,25,40
		c0,4,3.2,7.2,7.2,7.2s7.2-3.2,7.2-7.2S36.2,32.8,32.2,32.8L32.2,32.8z M32.2,9.1c2.7,0,4.9,2.2,4.9,4.9c0,2.7-2.2,4.9-4.9,4.9
		c-2.7,0-4.9-2.2-4.9-4.9C27.3,11.4,29.5,9.1,32.2,9.1L32.2,9.1z M8.6,32c-2.7,0-4.9-2.2-4.9-4.9c0-2.7,2.2-4.9,4.9-4.9
		c2.7,0,4.9,2.2,4.9,4.9C13.6,29.8,11.4,32,8.6,32L8.6,32z M32.2,44.9c-2.7,0-4.9-2.2-4.9-4.9c0-2.7,2.2-4.9,4.9-4.9
		c2.7,0,4.9,2.2,4.9,4.9C37.2,42.7,34.9,44.9,32.2,44.9L32.2,44.9z M32.2,44.9"/>
</g>
</svg>
