<?xml version="1.0" encoding="utf-8"?>
<!-- Generator: Adobe Illustrator 22.1.0, SVG Export Plug-In . SVG Version: 6.00 Build 0)  -->
<svg version="1.1" id="Layer_1" xmlns="http://www.w3.org/2000/svg" xmlns:xlink="http://www.w3.org/1999/xlink" x="0px" y="0px"
	 viewBox="0 0 40 51" style="enable-background:new 0 0 40 51;" xml:space="preserve">
<style type="text/css">
	.st0{fill:#FFFFFF;}
</style>
<g>
	<path class="st0" d="M33.7,15.7h-7.1c-0.5,0-0.9,0.4-0.9,0.9c0,0.5,0.4,0.9,0.9,0.9h6.2v26.6H6.1V17.4h6.2c0.5,0,0.9-0.4,0.9-0.9
		c0-0.5-0.4-0.9-0.9-0.9H5.3c-0.5,0-0.9,0.4-0.9,0.9V45c0,0.5,0.4,0.9,0.9,0.9h28.4c0.5,0,0.9-0.4,0.9-0.9V16.5
		C34.6,16,34.2,15.7,33.7,15.7z"/>
	<path class="st0" d="M13.1,11.9l5.5-5.5v24.3c0,0.5,0.4,0.9,0.9,0.9s0.9-0.4,0.9-0.9V6.2l5.5,5.5c0.4,0.4,0.9,0.4,1.2,0
		c0.4-0.4,0.4-0.9,0-1.2L20,3.4c-0.4-0.4-0.9-0.4-1.2,0l-7.1,7.1c-0.4,0.4-0.4,0.9,0,1.2C12,12.1,12.7,12.1,13.1,11.9z"/>
</g>
</svg>
