<?xml version="1.0" encoding="utf-8"?>
<!-- Generator: Adobe Illustrator 22.1.0, SVG Export Plug-In . SVG Version: 6.00 Build 0)  -->
<svg version="1.1" id="Layer_1" xmlns="http://www.w3.org/2000/svg" xmlns:xlink="http://www.w3.org/1999/xlink" x="0px" y="0px"
	 viewBox="0 0 51.7 49.3" style="enable-background:new 0 0 51.7 49.3;" xml:space="preserve">
<style type="text/css">
	.st0{fill:#8C8C8C;}
</style>
<g>
	<g>
		<path class="st0" d="M36.2,32.2c0.4,0,0.7-0.3,0.7-0.7c0-0.4-0.3-0.7-0.7-0.7c-0.4,0-0.7,0.3-0.7,0.7
			C35.5,31.9,35.8,32.2,36.2,32.2L36.2,32.2z M36.2,32.2"/>
		<path class="st0" d="M6.7,40.8h30.9c1.1,0,2-0.9,2-2V13.4c0-0.4-0.3-0.7-0.7-0.7h-4.8c0-3.8-3.1-6.8-6.8-6.8
			c-3.8,0-6.8,3.1-6.8,6.8h-5.2c-0.4,0-0.7,0.3-0.7,0.7v7.9H5.4c-0.4,0-0.7,0.3-0.7,0.7v16.8C4.7,39.9,5.6,40.8,6.7,40.8L6.7,40.8z
			 M6,38.8v-2.5h15.8v2.5c0,0.4-0.3,0.7-0.7,0.7H6.7C6.3,39.4,6,39.1,6,38.8L6,38.8z M37.6,39.4H23.1c0.1-0.2,0.1-0.4,0.1-0.7v-2.5
			h15v2.5C38.3,39.1,38,39.4,37.6,39.4L37.6,39.4z M27.3,7.2c3,0,5.5,2.5,5.5,5.5H21.9C21.9,9.7,24.3,7.2,27.3,7.2L27.3,7.2z M16,14
			h4.5v3.1h-0.7c-0.4,0-0.7,0.3-0.7,0.7c0,0.4,0.3,0.7,0.7,0.7h2.7c0.4,0,0.7-0.3,0.7-0.7c0-0.4-0.3-0.7-0.7-0.7h-0.7V14h10.9v3.1
			h-0.7c-0.4,0-0.7,0.3-0.7,0.7c0,0.4,0.3,0.7,0.7,0.7h2.7c0.4,0,0.7-0.3,0.7-0.7c0-0.4-0.3-0.7-0.7-0.7h-0.7V14h4.1v20.9h-15V22
			c0-0.4-0.3-0.7-0.7-0.7H16V14z M21.9,22.7v12.3H6V22.7H21.9z M21.9,22.7"/>
		<path class="st0" d="M9.9,26.7v1.4c0,2.3,1.8,4.1,4.1,4.1c2.3,0,4.1-1.8,4.1-4.1v-1.4c0.4,0,0.7-0.3,0.7-0.7s-0.3-0.7-0.7-0.7
			h-1.4c-0.4,0-0.7,0.3-0.7,0.7s0.3,0.7,0.7,0.7v1.4c0,1.5-1.2,2.7-2.7,2.7c-1.5,0-2.7-1.2-2.7-2.7v-1.4c0.4,0,0.7-0.3,0.7-0.7
			s-0.3-0.7-0.7-0.7H9.9c-0.4,0-0.7,0.3-0.7,0.7S9.5,26.7,9.9,26.7L9.9,26.7z M9.9,26.7"/>
		<path class="st0" d="M36.2,29.5c0.4,0,0.7-0.3,0.7-0.7v-5.5c0-0.4-0.3-0.7-0.7-0.7c-0.4,0-0.7,0.3-0.7,0.7v5.5
			C35.5,29.2,35.8,29.5,36.2,29.5L36.2,29.5z M36.2,29.5"/>
	</g>
</g>
</svg>
