<?xml version="1.0" encoding="utf-8"?>
<!-- Generator: Adobe Illustrator 22.1.0, SVG Export Plug-In . SVG Version: 6.00 Build 0)  -->
<svg version="1.1" id="Layer_1" xmlns="http://www.w3.org/2000/svg" xmlns:xlink="http://www.w3.org/1999/xlink" x="0px" y="0px"
	 viewBox="0 0 32.3 31.2" style="enable-background:new 0 0 32.3 31.2;" xml:space="preserve">
<style type="text/css">
	.st0{fill:#FFFFFF;}
</style>
<g>
	<g>
		<path class="st0" d="M24.1,12.4c-0.1-0.2-0.2-0.3-0.4-0.3l-5.3-0.7l-2.4-4.8c-0.1-0.2-0.2-0.3-0.4-0.3c-0.2,0-0.3,0.1-0.4,0.3
			L13,11.4l-5.3,0.8c-0.2,0-0.3,0.1-0.4,0.3c-0.1,0.2,0,0.4,0.1,0.5l3.8,3.7l-0.9,5.2c0,0.2,0,0.4,0.2,0.5c0.1,0.1,0.2,0.1,0.3,0.1
			c0.1,0,0.1,0,0.2-0.1l4.7-2.5l4.7,2.5c0.1,0,0.1,0.1,0.2,0.1c0.3,0,0.5-0.2,0.5-0.5c0,0,0-0.1,0-0.1l-0.9-5.2l3.8-3.7
			C24.2,12.8,24.2,12.6,24.1,12.4L24.1,12.4z M19.4,16.1c-0.1,0.1-0.2,0.3-0.1,0.4l0.8,4.5L16,19c-0.1-0.1-0.3-0.1-0.4,0l-4.1,2.2
			l0.8-4.5c0-0.2,0-0.3-0.1-0.4l-3.3-3.2l4.6-0.7c0.2,0,0.3-0.1,0.3-0.3l2-4.1l2.1,4.1c0.1,0.1,0.2,0.2,0.4,0.3l4.6,0.6L19.4,16.1z
			 M19.4,16.1"/>
	</g>
</g>
</svg>
