<?xml version="1.0" encoding="utf-8"?>
<!-- Generator: Adobe Illustrator 22.1.0, SVG Export Plug-In . SVG Version: 6.00 Build 0)  -->
<svg version="1.1" xmlns="http://www.w3.org/2000/svg" xmlns:xlink="http://www.w3.org/1999/xlink" x="0px" y="0px"
	 viewBox="0 0 75.7 72.2" style="enable-background:new 0 0 75.7 72.2;" xml:space="preserve">
<style type="text/css">
	.st0{fill:#189CDC;}
	.st1{fill:#FFFFFF;}
</style>
<g id="Layer_1">
</g>
<g id="Layer_2">
	<path class="st0" d="M33.4,66.4l4.1-1.3c1.1-0.3,2.2-0.4,3.3-0.1l5.2,1.4c2.2,0.6,4.6-0.2,6.1-2l3.5-4.4c0.7-0.9,1.7-1.5,2.7-1.9
		l3.8-1.2c2.3-0.7,3.9-2.8,4-5.2l0.3-5.4c0.1-1,0.4-2,0.9-2.8l2.7-4.2c1.3-2,1.2-4.6-0.2-6.5l-2.7-3.8c-0.7-1-1.1-2.2-1.1-3.4v-3.8
		c0-2.5-1.6-4.7-3.9-5.5l-5.2-1.8c-1-0.4-2-1-2.6-1.9l-3.3-4.2c-1.5-1.9-4.1-2.7-6.5-1.9L40.9,8c-1.2,0.4-2.4,0.4-3.6,0.1l-3.9-1.2
		c-2-0.6-4.2-0.1-5.7,1.4l-5.2,4.9c-0.6,0.6-1.3,1-2,1.3l-4.2,1.5c-2.2,0.8-3.6,2.8-3.8,5.1l-0.4,5.6c-0.1,1.1-0.4,2.1-1.1,3L8.5,33
		c-1.3,1.9-1.5,4.3-0.3,6.3l2.4,4.1c0.4,0.7,0.7,1.6,0.8,2.4l0.5,5.7c0.2,2.1,1.4,3.9,3.3,4.8l5.4,2.6c0.6,0.3,1.1,0.6,1.5,1
		l5.5,5.1C29.1,66.6,31.3,67.1,33.4,66.4z"/>
	<path class="st1" d="M33.1,48.2l-7.3-7.3c-0.5-0.5-0.5-1.4,0-1.9c0.5-0.5,1.4-0.5,1.9,0l6.3,6.3l16.5-16.5c0.5-0.5,1.4-0.5,1.9,0
		c0.5,0.5,0.5,1.4,0,1.9L35.1,48.2C34.5,48.7,33.7,48.7,33.1,48.2z"/>
</g>
</svg>
