<?xml version="1.0" encoding="utf-8"?>
<!-- Generator: Adobe Illustrator 22.1.0, SVG Export Plug-In . SVG Version: 6.00 Build 0)  -->
<svg version="1.1" xmlns="http://www.w3.org/2000/svg" xmlns:xlink="http://www.w3.org/1999/xlink" x="0px" y="0px"
	 viewBox="0 0 35.3 35.3" style="enable-background:new 0 0 35.3 35.3;" xml:space="preserve">
<style type="text/css">
	.st0{fill:#FFFFFF;}
</style>
<g id="Layer_1">
</g>
<g id="Layer_2">
	<path class="st0" d="M23.1,9.9h-1V9.2c0-0.3-0.2-0.5-0.5-0.5S21.2,9,21.2,9.2v0.7h-7.3V9.2c0-0.3-0.2-0.5-0.5-0.5S13,9,13,9.2l0,0
		v0.7h-1c-1.3,0-2.3,1-2.3,2.3V23c0,1.3,1,2.3,2.3,2.3h11.1c1.3,0,2.3-1,2.3-2.3V12.2C25.4,10.9,24.4,9.9,23.1,9.9z M24.5,23
		c0,0.7-0.6,1.3-1.3,1.3H12c-0.7,0-1.3-0.6-1.3-1.3v-8.4h13.8L24.5,23z M24.5,13.7H10.6v-1.5c0-0.7,0.6-1.3,1.3-1.3h1v0.6
		c0,0.3,0.2,0.5,0.5,0.5s0.5-0.2,0.5-0.5v-0.6h7.3v0.6c0,0.3,0.2,0.5,0.5,0.5s0.5-0.2,0.5-0.5v-0.6h1c0.7,0,1.3,0.6,1.3,1.3
		L24.5,13.7z M14.4,20.3c-0.2-0.2-0.2-0.5,0-0.7c0.2-0.2,0.5-0.2,0.7,0l1.1,1.1L20,17c0.2-0.2,0.5-0.2,0.7,0c0.2,0.2,0.2,0.5,0,0.7
		l-4.1,4.1c-0.2,0.2-0.5,0.2-0.7,0c0,0,0,0,0,0L14.4,20.3z"/>
</g>
</svg>
