<?xml version="1.0" encoding="utf-8"?>
<!-- Generator: Adobe Illustrator 22.1.0, SVG Export Plug-In . SVG Version: 6.00 Build 0)  -->
<svg version="1.1" id="Layer_1" xmlns="http://www.w3.org/2000/svg" xmlns:xlink="http://www.w3.org/1999/xlink" x="0px" y="0px"
	 viewBox="0 0 51.7 49.3" style="enable-background:new 0 0 51.7 49.3;" xml:space="preserve">
<style type="text/css">
	.st0{fill:#189CDC;}
</style>
<g>
	<g>
		<path class="st0" d="M37,38.1H14.6c-0.9,0-1.7-0.7-1.7-1.6V14.3c0-0.9,0.7-1.6,1.7-1.6H37c0.9,0,1.7,0.7,1.7,1.6v22.1
			C38.7,37.3,37.9,38.1,37,38.1z M14.6,13.9c-0.2,0-0.3,0.2-0.3,0.4v22.1c0,0.2,0.2,0.4,0.3,0.4H37c0.2,0,0.3-0.2,0.3-0.4V14.3
			c0-0.2-0.2-0.4-0.3-0.4H14.6z"/>
		<rect x="13.6" y="22" class="st0" width="24.4" height="1.3"/>
	</g>
	<rect x="20.4" y="23.1" class="st0" width="1.6" height="13.7"/>
</g>
</svg>
