<?xml version="1.0" encoding="utf-8"?>
<!-- Generator: Adobe Illustrator 22.1.0, SVG Export Plug-In . SVG Version: 6.00 Build 0)  -->
<svg version="1.1" xmlns="http://www.w3.org/2000/svg" xmlns:xlink="http://www.w3.org/1999/xlink" x="0px" y="0px"
	 viewBox="0 0 75 75.5" style="enable-background:new 0 0 75 75.5;" xml:space="preserve">
<style type="text/css">
	.st0{fill:#5ABA51;}
	.st1{fill:#FFFFFF;}
</style>
<g id="Layer_1">
	<circle class="st0" cx="37.4" cy="38.8" r="35"/>
	<g>
		<path class="st1" d="M39.5,33.7H20.3c-1.9,0-3.4,1.5-3.4,3.4v10.7c0,1.9,1.5,3.4,3.4,3.4c0,0,0,0,0,0H23V55c0,1.5,0.8,1.8,1.8,0.6
			l3.7-4.5h11c1.9,0,3.4-1.5,3.4-3.4c0,0,0,0,0,0V37.1C42.9,35.2,41.4,33.7,39.5,33.7z M23.3,44.3c-1,0-1.7-0.8-1.7-1.7
			s0.8-1.7,1.7-1.7s1.7,0.8,1.7,1.7l0,0C25,43.5,24.2,44.3,23.3,44.3z M29.9,44.3c-1,0-1.7-0.8-1.7-1.7s0.8-1.7,1.7-1.7
			c1,0,1.7,0.8,1.7,1.7l0,0C31.6,43.5,30.8,44.3,29.9,44.3z M36.5,44.3c-1,0-1.7-0.8-1.7-1.7s0.8-1.7,1.7-1.7s1.7,0.8,1.7,1.7l0,0
			C38.2,43.5,37.5,44.3,36.5,44.3z"/>
		<path class="st1" d="M52.6,25.2H34.2c-2.9,0-5.3,2.3-5.3,5.2v0.7h10.6c3.3,0,5.9,2.6,5.9,5.9v8.6h3.1l3.1,3.7
			c1,1.2,1.8,0.9,1.8-0.7l0-3.1c2.5-0.4,4.4-2.7,4.4-5.3v-9.9C57.9,27.6,55.5,25.2,52.6,25.2z"/>
	</g>
</g>
<g id="Layer_2">
</g>
</svg>
